<?xml version="1.0" encoding="UTF-8"?>
<svg id="Layer_1" xmlns="http://www.w3.org/2000/svg" viewBox="0 0 559.2 559.2">
  <defs>
    <style>
      .cls-1 {
        fill: #fff;
      }
    </style>
  </defs>
  <path class="cls-1" d="M558.76,10.72c-23.22-3.45-55.99-6.97-95.27-6.69-64.24.47-114.73.83-168.81,25.91-75.77,35.13-132.73,106.76-152.1,179.67-4.03,15.17-6.31,40.2-10.86,90.25-5.51,60.55-7.54,110.73-8.36,145.41h23.4c-.33-19.99,1.27-46.97,9.19-77.72,7.06-27.41,17.04-49.61,25.91-66.02,22.67,4.43,59.49,8.74,103.63.84,41.7-7.47,73.29-22.85,92.76-34.26-23.15-8.49-56.05-17.59-96.21-19.46-27.26-1.27-51.04,1.11-70.09,4.42,10.03-10.31,20.06-20.61,30.08-30.92,37.87,2.63,91.27,1.89,152.1-14.21,45.13-11.94,80.92-21.41,111.98-51.81,50.96-49.89,53.08-120.81,52.65-145.41ZM336.45,104.79c-39.37,17.98-76.55,36.38-111.51,54.83,14.01-21.58,43.19-59.93,93.86-88.28,75.57-42.28,149.12-34.41,173.78-30.67-49.56,18.15-101.83,39.33-156.12,64.12Z"/>
  <polygon class="cls-1" points="526.92 367.47 526.92 527 32.12 527 32.12 32.2 199.09 32.2 199.09 0 0 0 0 559.2 559.2 559.2 559.2 367.47 526.92 367.47"/>
</svg>