<?xml version="1.0" encoding="UTF-8"?>
<svg id="Layer_1" data-name="Layer 1" xmlns="http://www.w3.org/2000/svg" viewBox="0 0 479.94 171.33">
  <defs>
    <style>
      .cls-1 {
        fill: #f15a24;
      }

      .cls-1, .cls-2 {
        stroke-width: 0px;
      }

      .cls-2 {
        fill: #fff;
      }
    </style>
  </defs>
  <g>
    <path class="cls-2" d="M41.22,118.22C21.31,118.22,0,104.57,0,75.35,0,51.23,17.1,31.7,21.57,31.7c.38,0,.77.26,1.15.89l.26.89-.64,1.02C-1.28,60.03,10.34,105.21,47.09,105.21c6.64,0,16.72.38,29.73-9.83,1.15-.89,2.42-1.4,3.83-1.4.38,0,.64.25.89.77.13.51.26,1.02.26,1.53,0,4.21-13.65,21.95-40.58,21.95ZM66.99,48.16c-.38.13-4.21.13-10.97-4.21-8.93-5.74-9.83-4.08-11.23-4.08-.64,0-1.66-.13-2.68,3.32l-10.59,34.58c-.77,2.55-1.66,4.34-3.57,4.34-2.17,0-2.3-2.04-2.3-3.06l-.13-25.39c0-4.59,1.53-7.78,3.32-9.57,1.91-1.66,10.34-8.17,14.93-12.76,1.79-1.53,3.32-3.57,3.96-3.57,1.66-.13,10.59,5.87,16.21,5.74,6.25,0,8.68-4.21,9.95-4.47,1.4.13,2.04,1.15,2.17,1.79.25,1.15,1.28,10.21-9.06,17.35Z"/>
    <path class="cls-2" d="M138.71,110.06l-11.1,5.61c-.89.38-1.66.77-2.17.77s-.89-.25-1.4-.77l-7.53-9.95-14.16,10.85c-.38.25-.89.51-1.4.51-.64,0-1.02-.13-1.4-.51l-9.83-7.66c-2.55-2.04-3.57-2.42-3.57-3.06s.13-1.15.51-1.53l1.28-.77c.89-.51,1.66-1.4,2.17-2.55.38-1.15.64-2.17.64-3.19v-8.17c0-4.08-1.02-4.59-1.02-6.38,0-1.02.38-2.17,1.4-2.42l14.93-4.47c1.02-.25,2.68.51,2.68,1.91,0,1.02-.25,1.4-.77,1.91-3.19,2.94-3.45,3.32-3.45,7.15v13.91c0,1.28,0,2.04.64,2.93l1.79,1.66c.38.38,1.02.13,1.28,0l4.08-2.3c1.53-.89,1.53-2.17,1.53-3.7v-30.37c0-1.4-1.15-2.55-2.55-2.55l-17.61-7.53c-.64-.26-1.02-.89-1.02-1.66,0-1.02.77-1.79,1.79-1.79.51,0,3.19.51,3.96.64l13.4,2.04c1.91.25,4.72.25,7.15.25,1.53,0,4.98-.51,9.19-2.04,1.28-.51,2.17-.89,3.32-.89.77,0,1.28,1.15,1.28,1.79s-.13,1.53-1.28,2.3c-2.42,1.66-2.68,3.57-2.68,8.42v35.48c0,2.04,1.66,3.7,3.7,3.7,3.32,0,3.06-2.3,5.36-2.3,1.28,0,2.42,1.15,2.42,2.43,0,.89-.51,1.79-1.53,2.3Z"/>
    <path class="cls-2" d="M174.44,59.27c-1.15,0-2.3.26-3.19.89-1.02.64-1.91,1.28-2.55,1.66-.77.51-1.15,1.02-1.53,1.66-.38.64-1.15,1.79-1.53,3.45l-6.38,31.01c-.38,1.66-.64,2.93.38,3.45l4.34,2.3c.64.38,1.15.51,1.53.51.25,0,.64-.13,1.15-.51l2.81-2.17c.77-.51,1.79-1.53,2.55-.64l1.02,1.28c.51.64,0,1.28-.77,1.91l-13.65,11.74c-.38.25-.89.51-1.4.51-.64,0-.89-.25-1.4-.51l-9.57-4.59c-.64-.26-1.02-.89-1.02-1.66,0-.64.26-1.15.77-1.53l1.15-.77c.89-.51,2.94-1.79,2.94-5.74v-39.05c0-.77-.51-1.28-1.28-1.28h-3.96c-.77,0-1.28-.51-1.28-1.28,0-.38.13-.64.38-.89l14.67-19.65c.26-.38.77-.64,1.28-.64.89,0,1.66.77,1.66,1.66v9.32c0,3.57,2.81,6.38,6.25,6.38h6.51c2.04,0,2.55-.13,2.55.64,0,1.66-.77,2.55-2.42,2.55Z"/>
    <path class="cls-2" d="M232.63,110.06l-11.1,5.61c-.89.38-1.66.77-2.17.77s-.89-.25-1.4-.77l-7.53-9.95-14.16,10.85c-.38.25-.89.51-1.4.51-.64,0-1.02-.13-1.4-.51l-9.83-7.66c-2.55-2.04-3.57-2.42-3.57-3.06s.13-1.15.51-1.53l1.28-.77c.89-.51,1.66-1.4,2.17-2.55.38-1.15.64-2.17.64-3.19v-8.17c0-4.08-1.02-4.59-1.02-6.38,0-1.02.38-2.17,1.4-2.42l14.93-4.47c1.02-.25,2.68.51,2.68,1.91,0,1.02-.25,1.4-.77,1.91-3.19,2.94-3.45,3.32-3.45,7.15v13.91c0,1.28,0,2.04.64,2.93l1.79,1.66c.38.38,1.02.13,1.28,0l4.08-2.3c1.53-.89,1.53-2.17,1.53-3.7v-30.37c0-1.4-1.15-2.55-2.55-2.55l-17.61-7.53c-.64-.26-1.02-.89-1.02-1.66,0-1.02.77-1.79,1.79-1.79.51,0,3.19.51,3.96.64l13.4,2.04c1.91.25,4.72.25,7.15.25,1.53,0,4.98-.51,9.19-2.04,1.28-.51,2.17-.89,3.32-.89.77,0,1.28,1.15,1.28,1.79s-.13,1.53-1.28,2.3c-2.42,1.66-2.68,3.57-2.68,8.42v35.48c0,2.04,1.66,3.7,3.7,3.7,3.32,0,3.06-2.3,5.36-2.3,1.28,0,2.42,1.15,2.42,2.43,0,.89-.51,1.79-1.53,2.3Z"/>
    <path class="cls-2" d="M273.72,72.41c-.13.38-.89.89-1.4.89-.89,0-1.66-.38-2.81-1.02l-5.74-3.45c-.89-.51-2.04-1.53-2.81-1.02-2.3,1.4-2.3,2.04-2.3,2.94v28.2c0,1.15-.26,3.32,1.53,4.08l5.23,2.3c.64.26,1.15.38,1.53.38.77,0,2.3-1.15,2.68-1.4l3.96-3.19c.89-.64,1.4-.77,1.79-.77.51,0,.89.38,1.15.77s.25.64.25.89c0,.38-.64.77-1.28,1.4l-12.25,10.46c-2.04,1.91-2.55,3.32-4.98,1.79-3.7-2.55-11.23-5.49-14.8-5.49-1.79,0-2.68-.89-1.4-2.81.89-1.28,1.92-3.83,1.92-9.44v-29.22c0-1.02,1.4-2.3,4.21-3.83,5.49-3.06,10.59-6.76,11.61-8.04.89-1.02,1.28-2.3,2.17-1.79l11.87,6.38c3.06,1.66,4.85,2.68,3.57,4.85l-3.7,6.13Z"/>
    <path class="cls-2" d="M326.81,105.97c-5.23,2.94-7.15,4.08-13.65,10.21-.38.38-.89.51-1.28.51-.64,0-1.53-.64-2.81-1.91-1.28-1.28-3.32-2.81-6.12-4.47-2.81-1.66-5.87-3.32-11.49-3.32h-2.04c-.64,0-1.28-.13-1.91-.26-.64-.13-1.02-.77-1.02-1.66,0-.64.25-.89.77-.89.64,0,1.4-.51,2.3-1.53.89-1.02,1.28-3.06,1.28-6.25l-.38-27.56c0-1.53.13-5.49,3.57-5.87l10.97-5.49c1.53-.77,1.91-1.4,2.55-1.4.51,0,1.02.13,1.4.38,2.04,1.15,9.06,5.74,19.52,7.4,1.28.25,2.42,1.4,2.42,3.57v34.84c0,1.02-1.4,2.17-4.08,3.7ZM313.28,66.8l-3.96-2.42c-.51-.26-1.02-.38-1.66-.38-1.79,0-3.19,1.4-3.19,3.19l-.51,33.56c0,1.15.64,2.17,1.53,2.68l3.96,2.43c.51.25,1.02.38,1.66.38,1.79,0,3.19-1.4,3.19-3.19l.51-33.56c0-1.15-.64-2.17-1.53-2.68Z"/>
    <path class="cls-2" d="M426.6,108.52l-12.63,7.66c-.64.38-1.4.64-2.3.64-2.94,0-8.17-6-8.17-16.21v-32.8c0-1.53-.77-3.96-2.81-3.96-.26,0-.89.25-1.79.77l-6.51,4.21c-1.02.64-1.53,1.91-1.53,3.57l.64,29.73c0,2.68,1.15,4.47,3.19,6l1.02.77c.64.38.89.89.89,1.53s-.51,1.15-1.53,1.66l-8.68,3.96c-.77.38-1.53.51-2.17.51-2.93,0-5.74-6.64-6.51-14.42l-3.45-33.56c-.26-2.68-.38-3.96-2.04-3.96-.13,0-.51.25-1.15.77l-5.62,4.21c-1.02.77-1.4,2.04-1.4,3.57v28.84c0,1.92.38,4.34,2.42,5.74l.89.64c.77.64,1.15,1.15,1.15,1.66,0,.77-.38,1.28-1.02,1.53l-8.93,4.08c-.64.25-1.28.51-1.91.51s-1.4-.13-2.17-.51l-8.55-3.96c-.77-.38-1.15-1.02-1.15-1.66s.25-1.15.77-1.53l1.02-.77c1.15-1.02,2.68-2.55,2.68-5.74v-28.97c0-1.53-1.4-4.72-5.1-4.72h-3.7c-1.15,0-1.66-.64-1.66-1.79,0-.51.13-.89.51-1.15l9.19-7.78c1.15-.89,2.04-1.4,2.81-1.4s1.53.38,2.42,1.15l8.93,7.78,16.33-8.42c.77-.38,1.4-.64,1.91-.64s1.66,1.02,3.57,3.06l5.49,5.61,12.51-7.78c.89-.64,1.91-.89,2.81-.89.77,0,1.91.51,3.32,1.4,0,0,5.87,4.34,8.55,4.34s3.96.64,3.96,1.79c0,2.17-3.19,5.23-3.19,7.66l.38,28.2c0,2.55-.13,8.29,1.91,8.29,2.55,0,4.47-2.17,5.49-2.17.51,0,1.53,1.02,1.53,1.91,0,.38-.26.77-.64,1.02Z"/>
    <path class="cls-2" d="M475.35,106.48c-9.7,3.57-15.57,8.04-17.48,9.44-.64.51-1.28.51-1.66.51-.77,0-1.91-.77-3.45-2.17-6.64-6.12-11.36-7.53-16.84-7.53-4.47,0-4.98-1.02-4.98-1.91s1.02-1.4,2.94-2.55c3.06-1.91,3.19-4.98,3.19-8.55v-44.41c0-2.94-.51-5.23-1.79-6.51l-5.36-5.49c-.38-.38-.64-1.02-.64-1.66,0-1.28,1.02-2.55,2.81-2.17l8.42,1.53,13.02-3.83h.51c1.15,0,2.04.89,2.04,2.04,0,.51-.13,1.02-.64,1.53-2.42,2.17-3.57,3.19-3.57,5.74l.13,20.8c0,1.02,1.4,2.3,3.7,1.15l11.23-5.49c1.4-.51,2.68-.77,3.57-.77,4.21,0,9.44,7.27,9.44,14.8v29.73c0,3.96-.64,4.21-4.59,5.74ZM463.23,68.07c0-2.94-.25-3.96-1.66-3.96-.26,0-.77,0-1.4.26l-7.66,3.57c-1.4.64-2.3,2.04-2.3,3.57v29.86c0,1.28.89,3.06,3.45,3.57l5.1,1.15c.38.13,1.28.26,2.17.26.77,0,2.3-.89,2.3-3.96v-34.33Z"/>
  </g>
  <g>
    <path class="cls-2" d="M115.62,162.29c-.14-.09-.18-.14-.18-.27,0-.18.14-.41.41-.77l1.91-3c.14-.23.32-.45.59-.45.18,0,.27.04.5.23,3.14,2.5,6.5,3.91,9.96,3.91,2.73,0,5.5-.96,8.19-3.05.5-1.09.73-2.23.73-3.32,0-2.23-1-4-3.41-5.18-2.86-1.46-11.73-.04-15.01-2.14-3-1.96-4-4.27-4-6.73,0-3.18,1.86-6.32,3.96-8.05,3.41-2.91,6.91-3.96,10.55-3.96,3.09,0,6.27.86,8.91,1.82.5.18.59.36.59.59,0,.14-.05.27-.18.5l-1.77,3.5c-.14.27-.27.41-.45.41s-.36-.04-.59-.23c-2.55-1.68-5.77-3.05-9.05-3.05-2.77,0-5.5.96-7.87,3.14-.23.5-.5,1.46-.5,2.46,0,1.73.68,3.68,2.96,5.09,2.09,1.32,11.05.32,15.14,2.14,3.41,1.5,4.64,4.05,4.64,6.73,0,3.64-2.36,7.5-4.27,9.05-2.82,2.36-6.68,3.86-11.28,3.86-3.41,0-7.28-1-10.46-3.23Z"/>
    <path class="cls-2" d="M164.28,132.33v32.6c0,.18-.14.32-.36.32h-4.23c-.23,0-.36-.14-.36-.32v-32.6c-.41,0-9.59.18-9.78.18-.23,0-.27-.05-.27-.23v-2.36c0-.18.09-.32.32-.32.14,0,11.6.18,12.23.18.59,0,12.05-.18,12.23-.18s.27.14.27.32v2.36c0,.18-.05.23-.23.23-.23,0-9.41-.18-9.82-.18Z"/>
    <path class="cls-2" d="M213.84,165.25c-.23,0-.32-.14-.32-.32v-6.09c-.68,1.05-4.96,6.68-13.5,6.68-11.46,0-13.82-9.55-13.82-14.91v-18.37c0-.32-.18-.5-.55-.59l-3.64-.73c-.36-.05-.36-.09-.36-.36v-.32c0-.14.09-.18.23-.18,2-.14,8.05-.54,8.46-.54s.45.18.55.64l.27,2.09v16.05c0,6.96,2.68,13.64,10.32,13.64,5.82,0,9.09-2.46,12.05-5.96v-25.83c0-.23.09-.36.32-.36h4.32c.23,0,.32.14.32.36v34.79c0,.18-.09.32-.32.32h-4.32Z"/>
    <path class="cls-2" d="M233.72,165.25c-.27,0-.36-.14-.36-.27,0-.18.14-.5.18-.64.23-.64,1-3.32,1-4.59v-27.51c0-.32-.18-.5-.55-.59l-3.64-.73c-.32-.05-.36-.09-.36-.36v-.32c0-.14.09-.18.23-.18,2-.14,11.82-.54,17.82-.54,4.64,0,9.46.68,12.96,4.23,3.05,3.09,4.91,8.23,4.91,12.91,0,5.14-1.64,9.59-5.32,13-4.87,4.46-10.32,5.87-16.64,5.87-4.68,0-6.73-.27-10.23-.27ZM256.27,159.02c3-2.91,4.5-7.05,4.5-11.32,0-3.77-1-8.82-4.27-12-2.77-2.73-6.73-3.96-10.78-3.96-2.37,0-4.82.14-6.23.41v28.83c0,.41.09.64.41.73,1.46.41,4.32,1.23,6.5,1.23,4.09,0,7.59-1.73,9.87-3.91Z"/>
    <path class="cls-2" d="M280.55,165.25c-.18,0-.32-.18-.32-.32v-32.69c0-.32-.14-.5-.5-.59l-3.64-.73c-.36-.05-.36-.09-.36-.36v-.32c0-.14.09-.18.23-.18,2-.14,8-.54,8.41-.54s.5.27.54.64l.27,2.09v32.69c0,.14-.18.32-.32.32h-4.32Z"/>
    <path class="cls-2" d="M303.2,160.16c-2.77-3.27-4.14-7.96-4.14-12.28,0-6.55,3.68-10.78,7.18-13.96,4.05-3.64,8.82-4.41,10.87-4.41,6.09,0,10.28,1.73,13.05,4.64,3.14,3.27,4.77,8.41,4.77,12.96,0,7.46-4.77,12.37-8.64,15.1-3.55,2.46-7.41,3.32-10.19,3.32-6.18,0-10.28-2.23-12.91-5.37ZM326.76,159.98c2.73-3.32,3.46-7.96,3.46-11.32,0-4.05-1.27-7.78-3.96-11-2.41-2.96-5.78-4.82-9.5-4.82-4.14,0-7.05.68-9.46,2.18-2.82,3.41-3.5,8.32-3.5,11.69,0,4,1.41,7.59,4.05,10.69,2.41,2.86,5.77,4.82,9.37,4.82,4.27,0,7.18-.73,9.55-2.23Z"/>
    <path class="cls-2" d="M345.4,162.29c-.14-.09-.18-.14-.18-.27,0-.18.14-.41.41-.77l1.91-3c.14-.23.32-.45.59-.45.18,0,.27.04.5.23,3.14,2.5,6.5,3.91,9.96,3.91,2.73,0,5.5-.96,8.18-3.05.5-1.09.73-2.23.73-3.32,0-2.23-1-4-3.41-5.18-2.87-1.46-11.73-.04-15.01-2.14-3-1.96-4-4.27-4-6.73,0-3.18,1.86-6.32,3.96-8.05,3.41-2.91,6.91-3.96,10.55-3.96,3.09,0,6.28.86,8.91,1.82.5.18.59.36.59.59,0,.14-.05.27-.18.5l-1.77,3.5c-.14.27-.27.41-.46.41s-.36-.04-.59-.23c-2.55-1.68-5.78-3.05-9.05-3.05-2.77,0-5.5.96-7.87,3.14-.23.5-.5,1.46-.5,2.46,0,1.73.68,3.68,2.96,5.09,2.09,1.32,11.05.32,15.14,2.14,3.41,1.5,4.64,4.05,4.64,6.73,0,3.64-2.36,7.5-4.27,9.05-2.82,2.36-6.68,3.86-11.28,3.86-3.41,0-7.28-1-10.46-3.23Z"/>
  </g>
  <path class="cls-2" d="M381.18,168.82c-2.71-12.05-1.57-29.19,8.89-37.6,3.79-2.98,8.58-4.52,13.39-4.6.61-.01,2.24-.04,2.86-.05,22.94-.16,45.94.34,68.73,3.45-23.71,3.22-47.61,3.69-71.47,3.4-11.83-.36-17.61,10.06-20.07,20.47-1.22,4.89-2.12,9.84-2.34,14.93h0Z"/>
  <path class="cls-2" d="M102.06,171.33c-.21-5.09-1.12-10.04-2.34-14.93-2.46-10.41-8.24-20.83-20.07-20.47-23.87.29-47.76-.19-71.47-3.4,22.79-3.11,45.79-3.62,68.73-3.45.64.01,2.25.04,2.86.05,4.81.09,9.6,1.62,13.39,4.6,10.46,8.42,11.6,25.54,8.89,37.6h0Z"/>
  <g>
    <path class="cls-1" d="M176.88,48.71c-5.38,2.56-7.18,1.86-7.79,1.56-2.13-1.05-2.87-3.6-3.12-4.68.13-10.26.26-20.53.39-30.79,1.3,3.12,2.6,6.24,3.9,9.35,1.85.55,3.97.93,4.68,0,1.2-1.59-3.03-5.21-3.9-10.13-.57-3.24.19-7.82,5.46-14.03-2.33,5.81-1.73,9.45-.78,11.69,1.47,3.46,4.19,4.53,5.46,8.57.97,3.07.49,5.95,0,7.79.91-.24,3.14-.99,4.68-3.12,2-2.77,2-6.76,0-10.13,1.87,1.42,4.89,4.19,6.24,8.57,2.84,9.25-4.32,17.41-5.46,18.71-2.99,3.41-6.14,4.91-9.74,6.63Z"/>
    <path class="cls-1" d="M185.07,2.34c-.61.74-1.99,2.64-2.34,5.46-.31,2.57.4,4.57.78,5.46-2.68-.83-4.34-3.51-3.9-6.24.43-2.64,2.74-4.64,5.46-4.68Z"/>
  </g>
</svg>