<?xml version="1.0" encoding="UTF-8"?>
<svg id="Layer_4" data-name="Layer 4" xmlns="http://www.w3.org/2000/svg" viewBox="0 0 39.82 39.78">
  <defs>
    <style>
      .cls-1 {
        fill: #fff;
        fill-rule: evenodd;
        stroke-width: 0px;
      }
    </style>
  </defs>
  <path class="cls-1" d="m19.8.18C8.87.18,0,9.04,0,19.98s8.87,19.8,19.8,19.8,19.8-8.87,19.8-19.8S30.74.18,19.8.18Zm11.93,24.61c-.38,2.85-1.8,3.27-4.6,3.51-2.42.24-5.17.28-7.3.28s-4.93-.05-7.3-.28c-2.8-.24-4.27-.66-4.65-3.51-.14-1.23-.24-3.04-.24-4.84s.09-3.56.24-4.84c.38-2.8,1.85-3.27,4.65-3.51,2.37-.19,5.17-.28,7.3-.28s4.88.09,7.3.28c2.8.24,4.22.71,4.6,3.51.19,1.28.28,3.04.28,4.84s-.09,3.6-.28,4.84Z"/>
  <polygon class="cls-1" points="17.37 23.65 23.72 19.95 17.37 16.29 17.37 23.65"/>
</svg>