<?xml version="1.0" encoding="UTF-8"?>
<svg id="Layer_1" data-name="Layer 1" xmlns="http://www.w3.org/2000/svg" viewBox="0 0 39.82 39.78">
  <defs>
    <style>
      .cls-1 {
        fill: #fff;
        stroke-width: 0px;
      }
    </style>
  </defs>
  <path class="cls-1" d="m25.78,9.36h-11.53c-2.6,0-4.71,2.11-4.71,4.71v11.47c0,2.6,2.11,4.71,4.71,4.71h11.53c2.6,0,4.71-2.11,4.71-4.71v-11.47c0-2.6-2.11-4.71-4.71-4.71Zm-5.73,17.32h-.06c-3.74,0-6.82-3.08-6.82-6.88s3.08-6.88,6.82-6.88h.06c3.74,0,6.88,3.14,6.88,6.88s-3.14,6.88-6.88,6.88Zm6.76-12.19c-.84,0-1.45-.66-1.45-1.45s.6-1.45,1.45-1.45c.78,0,1.45.66,1.45,1.45s-.66,1.45-1.45,1.45Z"/>
  <path class="cls-1" d="m20.02,0C9.08,0,.22,8.87.22,19.8s8.87,19.8,19.8,19.8,19.8-8.87,19.8-19.8S30.96,0,20.02,0Zm12.64,25.6c0,3.74-3.08,6.82-6.82,6.82h-11.65c-3.74,0-6.82-3.08-6.82-6.82v-11.59c0-3.74,3.08-6.82,6.82-6.82h11.65c3.74,0,6.82,3.08,6.82,6.82v11.59Z"/>
  <path class="cls-1" d="m20.05,15.28h-.06c-2.47,0-4.53,2.05-4.53,4.53s2.05,4.59,4.53,4.59h.06c2.47,0,4.53-2.05,4.53-4.59s-2.05-4.53-4.53-4.53Z"/>
</svg>